<?xml version="1.0" encoding="UTF-8"?>
<!DOCTYPE svg PUBLIC "-//W3C//DTD SVG 1.1//EN" "http://www.w3.org/Graphics/SVG/1.1/DTD/svg11.dtd">
<svg xmlns="http://www.w3.org/2000/svg" version="1.1" width="100px" height="55px" style="shape-rendering:geometricPrecision; text-rendering:geometricPrecision; image-rendering:optimizeQuality; fill-rule:evenodd; clip-rule:evenodd" xmlns:xlink="http://www.w3.org/1999/xlink">
<g><path style="opacity:1" fill="#fefefe" d="M -0.5,-0.5 C 166.167,-0.5 332.833,-0.5 499.5,-0.5C 499.5,166.167 499.5,332.833 499.5,499.5C 332.833,499.5 166.167,499.5 -0.5,499.5C -0.5,332.833 -0.5,166.167 -0.5,-0.5 Z"/></g>
<g><path style="opacity:1" fill="#050505" d="M 123.5,153.5 C 129.898,153.243 136.231,153.743 142.5,155C 147.086,155.96 151.086,157.96 154.5,161C 152.557,165.72 150.224,170.22 147.5,174.5C 141.421,170.481 134.754,168.981 127.5,170C 121.799,172.832 121.133,176.498 125.5,181C 133.324,184.745 140.991,188.745 148.5,193C 158.283,201.298 160.116,211.131 154,222.5C 149.422,228.708 143.255,232.208 135.5,233C 123.178,235.356 111.845,233.022 101.5,226C 100.426,225.261 99.7591,224.261 99.5,223C 101.713,218.066 104.546,213.566 108,209.5C 114.532,215.021 122.032,217.521 130.5,217C 136.74,216.084 138.906,212.584 137,206.5C 128.916,201.541 120.749,196.707 112.5,192C 102.328,179.721 103.328,168.388 115.5,158C 118.099,156.205 120.766,154.705 123.5,153.5 Z"/></g>
<g><path style="opacity:1" fill="#b0b0b0" d="M 350.5,166.5 C 350.5,172.5 350.5,178.5 350.5,184.5C 348.265,184.795 346.265,184.461 344.5,183.5C 346.167,183.5 347.833,183.5 349.5,183.5C 349.178,177.642 349.511,171.975 350.5,166.5 Z"/></g>
<g><path style="opacity:1" fill="#020202" d="M 350.5,166.5 C 355.833,166.5 361.167,166.5 366.5,166.5C 366.5,172.5 366.5,178.5 366.5,184.5C 369.833,184.5 373.167,184.5 376.5,184.5C 376.5,188.5 376.5,192.5 376.5,196.5C 373.167,196.5 369.833,196.5 366.5,196.5C 366.177,203.022 366.51,209.355 367.5,215.5C 367.414,216.496 367.748,217.329 368.5,218C 370.568,218.687 372.568,218.52 374.5,217.5C 377.204,221.911 378.204,226.577 377.5,231.5C 371.969,233.378 366.302,233.878 360.5,233C 354.808,230.794 351.641,226.627 351,220.5C 350.5,212.507 350.334,204.507 350.5,196.5C 346.71,195.899 343.544,196.899 341,199.5C 337.067,197.522 332.9,197.022 328.5,198C 325.619,199.251 323.786,201.417 323,204.5C 322.5,213.827 322.334,223.161 322.5,232.5C 317.167,232.5 311.833,232.5 306.5,232.5C 306.5,216.5 306.5,200.5 306.5,184.5C 311.833,184.5 317.167,184.5 322.5,184.5C 322.028,190.636 323.361,191.469 326.5,187C 331.848,182.58 337.848,181.414 344.5,183.5C 346.265,184.461 348.265,184.795 350.5,184.5C 350.5,178.5 350.5,172.5 350.5,166.5 Z"/></g>
<g><path style="opacity:1" fill="#828282" d="M 366.5,166.5 C 367.489,171.975 367.822,177.642 367.5,183.5C 370.833,183.5 374.167,183.5 377.5,183.5C 377.5,188.167 377.5,192.833 377.5,197.5C 374.167,197.5 370.833,197.5 367.5,197.5C 367.5,203.5 367.5,209.5 367.5,215.5C 366.51,209.355 366.177,203.022 366.5,196.5C 369.833,196.5 373.167,196.5 376.5,196.5C 376.5,192.5 376.5,188.5 376.5,184.5C 373.167,184.5 369.833,184.5 366.5,184.5C 366.5,178.5 366.5,172.5 366.5,166.5 Z"/></g>
<g><path style="opacity:1" fill="#050505" d="M 160.5,232.5 C 160.5,216.5 160.5,200.5 160.5,184.5C 165.833,184.5 171.167,184.5 176.5,184.5C 176.238,185.978 176.571,187.311 177.5,188.5C 188.583,179.861 198.75,180.861 208,191.5C 216.976,180.91 227.142,179.743 238.5,188C 239.794,190.087 240.961,192.254 242,194.5C 242.5,207.162 242.667,219.829 242.5,232.5C 236.833,232.5 231.167,232.5 225.5,232.5C 225.667,221.828 225.5,211.161 225,200.5C 223.471,197.484 220.971,196.151 217.5,196.5C 214.067,196.133 211.567,197.466 210,200.5C 209.5,211.161 209.333,221.828 209.5,232.5C 203.833,232.5 198.167,232.5 192.5,232.5C 192.667,221.828 192.5,211.161 192,200.5C 190.471,197.484 187.971,196.151 184.5,196.5C 181.209,196.279 178.709,197.613 177,200.5C 176.5,211.161 176.333,221.828 176.5,232.5C 171.167,232.5 165.833,232.5 160.5,232.5 Z"/></g>
<g><path style="opacity:1" fill="#050505" d="M 262.5,182.5 C 270.253,181.587 277.087,183.587 283,188.5C 283.49,187.207 283.657,185.873 283.5,184.5C 289.167,184.5 294.833,184.5 300.5,184.5C 300.5,200.5 300.5,216.5 300.5,232.5C 294.833,232.5 289.167,232.5 283.5,232.5C 283.66,230.801 283.494,229.134 283,227.5C 280.374,230.231 277.207,232.064 273.5,233C 255.42,234.6 245.42,226.266 243.5,208C 244.157,195.156 250.491,186.656 262.5,182.5 Z"/></g>
<g><path style="opacity:1" fill="#747474" d="M 176.5,184.5 C 171.167,184.5 165.833,184.5 160.5,184.5C 160.5,200.5 160.5,216.5 160.5,232.5C 159.504,216.342 159.17,200.009 159.5,183.5C 165.358,183.178 171.025,183.511 176.5,184.5 Z"/></g>
<g><path style="opacity:1" fill="#f8f8f8" d="M 269.5,196.5 C 280.848,196.684 285.348,202.351 283,213.5C 278.803,219.471 273.303,220.971 266.5,218C 259.039,209.509 260.039,202.342 269.5,196.5 Z"/></g>
<g><path style="opacity:1" fill="#050505" d="M 221.5,265.5 C 239.762,262.541 252.262,269.541 259,286.5C 260.098,293.385 259.431,300.051 257,306.5C 248,298.167 239,289.833 230,281.5C 221.071,289.718 212.238,298.051 203.5,306.5C 197.213,287.409 203.213,273.742 221.5,265.5 Z"/></g>
<g><path style="opacity:1" fill="#050505" d="M 116.5,315.5 C 116.5,299.5 116.5,283.5 116.5,267.5C 121.833,267.5 127.167,267.5 132.5,267.5C 132.343,268.873 132.51,270.207 133,271.5C 143.695,263.075 153.861,263.742 163.5,273.5C 174.338,262.868 185.172,262.868 196,273.5C 196.862,275.087 197.529,276.754 198,278.5C 198.5,290.829 198.667,303.162 198.5,315.5C 192.833,315.5 187.167,315.5 181.5,315.5C 181.667,304.828 181.5,294.161 181,283.5C 177.692,279.673 173.526,278.506 168.5,280C 167.299,280.903 166.465,282.069 166,283.5C 165.5,294.161 165.333,304.828 165.5,315.5C 159.833,315.5 154.167,315.5 148.5,315.5C 148.667,304.828 148.5,294.161 148,283.5C 144.692,279.673 140.526,278.506 135.5,280C 134.299,280.903 133.465,282.069 133,283.5C 132.5,294.161 132.333,304.828 132.5,315.5C 127.167,315.5 121.833,315.5 116.5,315.5 Z"/></g>
<g><path style="opacity:1" fill="#060606" d="M 334.5,265.5 C 354.903,263.911 365.57,273.245 366.5,293.5C 354.833,293.5 343.167,293.5 331.5,293.5C 332.44,301.821 337.107,304.988 345.5,303C 348.621,302.274 351.287,300.774 353.5,298.5C 357.525,300.175 361.192,302.341 364.5,305C 358.891,313.212 351.058,317.045 341,316.5C 327.236,316.417 318.236,309.751 314,296.5C 312.256,286.73 315.09,278.563 322.5,272C 326.434,269.536 330.434,267.369 334.5,265.5 Z"/></g>
<g><path style="opacity:1" fill="#424242" d="M 132.5,267.5 C 127.167,267.5 121.833,267.5 116.5,267.5C 116.5,283.5 116.5,299.5 116.5,315.5C 115.504,299.342 115.17,283.009 115.5,266.5C 121.358,266.178 127.025,266.511 132.5,267.5 Z"/></g>
<g><path style="opacity:1" fill="#040404" d="M 256.5,268.5 C 263.011,267.182 269.678,267.182 276.5,268.5C 279.787,276.703 283.454,284.703 287.5,292.5C 291.546,284.703 295.213,276.703 298.5,268.5C 305.167,267.167 311.833,267.167 318.5,268.5C 310.167,283.833 301.833,299.167 293.5,314.5C 289.5,315.833 285.5,315.833 281.5,314.5C 273.138,299.105 264.805,283.771 256.5,268.5 Z"/></g>
<g><path style="opacity:1" fill="#f1f1f1" d="M 336.5,276.5 C 341.39,275.784 345.556,277.117 349,280.5C 349.49,281.793 349.657,283.127 349.5,284.5C 343.5,284.5 337.5,284.5 331.5,284.5C 331.667,280.821 333.334,278.154 336.5,276.5 Z"/></g>
<g><path style="opacity:1" fill="#000000" d="M 223.5,300.5 C 225.5,300.5 227.5,300.5 229.5,300.5C 229.5,302.5 229.5,304.5 229.5,306.5C 227.5,306.5 225.5,306.5 223.5,306.5C 223.5,304.5 223.5,302.5 223.5,300.5 Z"/></g>
<g><path style="opacity:1" fill="#000000" d="M 231.5,300.5 C 233.5,300.5 235.5,300.5 237.5,300.5C 237.5,302.5 237.5,304.5 237.5,306.5C 235.5,306.5 233.5,306.5 231.5,306.5C 231.5,304.5 231.5,302.5 231.5,300.5 Z"/></g>
<g><path style="opacity:1" fill="#191919" d="M 223.5,308.5 C 225.5,308.5 227.5,308.5 229.5,308.5C 229.5,310.833 229.5,313.167 229.5,315.5C 227.5,315.5 225.5,315.5 223.5,315.5C 223.5,313.167 223.5,310.833 223.5,308.5 Z"/></g>
<g><path style="opacity:1" fill="#191919" d="M 231.5,308.5 C 233.5,308.5 235.5,308.5 237.5,308.5C 237.5,310.833 237.5,313.167 237.5,315.5C 235.5,315.5 233.5,315.5 231.5,315.5C 231.5,313.167 231.5,310.833 231.5,308.5 Z"/></g>
</svg>
